<?xml version="1.0" encoding="UTF-8"?>
<svg width="17px" height="18px" viewBox="0 0 17 18" version="1.1" xmlns="http://www.w3.org/2000/svg" xmlns:xlink="http://www.w3.org/1999/xlink">
    <!-- Generator: Sketch 51.3 (57544) - http://www.bohemiancoding.com/sketch -->
    <title>Kalender</title>
    <desc>Created with Sketch.</desc>
    <defs></defs>
    <g id="Page-1" stroke="none" stroke-width="1" fill="none" fill-rule="evenodd">
        <g id="Artboard" transform="translate(-1898.000000, -1842.000000)">
            <g id="Kalender" transform="translate(1897.000000, 1842.000000)">
                <path d="M10.1732727,3.02727273 C7.98381818,3.02727273 3.762,2.69181818 2.70818182,3.36272727 C1.54636364,4.10236364 1.59381818,6.87272727 1.71818182,8.77418182 C1.86218182,10.98 1.08163636,14.7518182 1.89490909,16.3309091 C2.54290909,17.5876364 5.814,17.514 7.51581818,17.4338182 C9.92618182,17.3225455 14.2887273,17.8625455 16.2981818,17.0018182 C17.7332727,16.3849091 17.2963636,12.5492727 17.3029091,10.8278182 C17.3078182,8.78563636 17.7725455,4.13672727 16.9674545,3.41181818 C16.0101818,2.54781818 11.322,3.02727273 10.1732727,3.02727273 Z" id="Shape" stroke="#3A3A3A" stroke-linecap="round" stroke-linejoin="round"></path>
                <path d="M17.4387273,6.624 C17.4550909,5.11527273 17.37,3.77181818 16.9674545,3.41018182 C16.0101818,2.54945455 11.322,3.02727273 10.1732727,3.02727273 C7.98381818,3.02727273 3.762,2.69181818 2.70818182,3.36272727 C1.88672727,3.88636364 1.66909091,5.42454545 1.656,6.95127273 C3.09272727,7.23763636 15.9398182,6.97090909 17.4387273,6.624 Z" id="Shape" fill="#3A3A3A" fill-rule="nonzero"></path>
                <path d="M4.896,8.55654545 C4.60636364,8.81345455 4.53927273,9.98836364 4.77818182,10.5234545 C4.96636364,10.9521818 6.65018182,10.9210909 6.70909091,10.44 C6.75490909,10.0636364 6.88418182,8.42236364 6.31472727,8.41254545 C5.90890909,8.406 5.21836364,8.27018182 4.896,8.55654545 Z" id="Shape" fill="#3A3A3A" fill-rule="nonzero"></path>
                <path d="M9.15545455,8.55654545 C8.802,8.81509091 8.79218182,10.4727273 9.48927273,10.5283636 C9.86563636,10.5610909 10.8965455,10.5578182 10.9423636,10.0456364 C10.9865455,9.51218182 11.2974545,8.41418182 10.4956364,8.46654545 C10.0456364,8.49436364 9.522,8.28818182 9.15545455,8.55654545 Z" id="Shape" fill="#3A3A3A" fill-rule="nonzero"></path>
                <path d="M13.0303636,8.46 C12.8814545,8.50090909 12.6081818,10.7525455 13.158,10.8949091 C13.698,11.0372727 14.7567273,11.2009091 14.9007273,10.4710909 C15.0169091,9.88363636 15.1952727,8.50745455 14.3427273,8.41745455 C13.9156364,8.37327273 13.4443636,8.34545455 13.0303636,8.46 Z" id="Shape" fill="#3A3A3A" fill-rule="nonzero"></path>
                <path d="M5.02036364,12.9698182 C4.85836364,13.0958182 4.83872727,13.5327273 4.842,13.7961818 C4.84527273,14.1692727 4.79781818,14.8107273 5.29036364,14.7829091 C5.65036364,14.7632727 5.94818182,14.7812727 6.31309091,14.8025455 C6.85309091,14.832 6.87436364,14.4850909 6.92345455,13.9941818 C6.95290909,13.7225455 7.05763636,13.2169091 6.92836364,12.9550909 C6.82854545,12.7538182 6.27545455,12.8045455 6.09709091,12.8110909 C5.62581818,12.8225455 5.28381818,12.7652727 5.02036364,12.9698182 Z" id="Shape" fill="#3A3A3A" fill-rule="nonzero"></path>
                <path d="M8.87890909,12.9534545 C8.70709091,13.0712727 8.68745455,14.7305455 9.03272727,14.8287273 C9.35509091,14.9203636 9.85745455,14.8270909 10.1929091,14.8074545 C10.6887273,14.7747273 10.746,14.3918182 10.746,14.0121818 C10.746,13.626 10.8229091,13.302 10.5676364,13.0074545 C10.4383636,12.8585455 10.2616364,12.8552727 10.0685455,12.8716364 C9.684,12.8994545 9.09490909,12.8029091 8.87890909,12.9534545 Z" id="Shape" fill="#3A3A3A" fill-rule="nonzero"></path>
                <path d="M12.6294545,12.9534545 C12.3807273,13.0909091 12.2678182,14.7681818 12.8814545,14.8352727 C13.4721818,14.9023636 14.6225455,15.0889091 14.6650909,14.2756364 C14.6961818,13.6554545 14.8581818,12.7914545 13.9761818,12.8601818 C13.5441818,12.8929091 12.7947273,12.8585455 12.6294545,12.9534545 Z" id="Shape" fill="#3A3A3A" fill-rule="nonzero"></path>
                <path d="M4.45581818,2.93072727 C4.45581818,1.98981818 4.29054545,0.438545455 5.724,0.438545455 C6.91854545,0.438545455 6.56018182,1.54963636 6.65509091,2.87181818" id="Shape" fill="#3A3A3A" fill-rule="nonzero"></path>
                <path d="M12.9730909,2.78018182 C12.9730909,1.04072727 12.9976364,0.266727273 14.2805455,0.346909091 C15.6436364,0.432 15.246,1.27145455 15.246,2.80963636" id="Shape" fill="#3A3A3A" fill-rule="nonzero"></path>
            </g>
        </g>
    </g>
</svg>