<?xml version="1.0" encoding="UTF-8"?>
<svg width="17px" height="13px" viewBox="0 0 17 13" version="1.1" xmlns="http://www.w3.org/2000/svg" xmlns:xlink="http://www.w3.org/1999/xlink">
    <!-- Generator: Sketch 51.3 (57544) - http://www.bohemiancoding.com/sketch -->
    <title>Mailto</title>
    <desc>Created with Sketch.</desc>
    <defs></defs>
    <g id="Page-1" stroke="none" stroke-width="1" fill="none" fill-rule="evenodd" stroke-linecap="round" stroke-linejoin="round">
        <g id="Artboard" transform="translate(-2032.000000, -1841.000000)" stroke="#3A3A3A">
            <g id="Mailto" transform="translate(2033.000000, 1842.000000)">
                <path d="M13.835708,0.0219887446 C12.6684297,-0.0432263138 11.6676767,0.0474385236 10.388314,0.152418862 C9.12656457,0.255808588 7.98810793,0.316251813 6.7215549,0.349654648 C5.36693561,0.383057483 3.92264884,0.239902477 2.57123196,0.196955975 C2.04603677,0.179459252 0.441629523,0.21763392 0.267098196,0.370332594 C0.0205126503,0.585065103 -0.0115114465,1.83051366 0.00289939709,2.13750162 C0.0365246987,2.78010853 0.777882539,3.01870021 1.40715604,3.46725256 C2.41111148,4.1830276 3.51914522,4.62998934 4.54391632,5.31554276 C5.5622826,5.99632434 6.84164527,7 8.10339468,7 C9.04810553,7 10.060067,6.41465509 10.935926,5.69888005 C11.4371032,5.29009298 11.9366791,4.88130591 12.4570706,4.50114983 C12.9470393,4.14167171 13.4594249,3.81082458 13.9317803,3.42748729 C14.304861,3.12208994 14.7612044,2.67194697 14.9085152,2.20271668 C15.0622309,1.7223521 14.9757658,1.65713704 14.9757658,1.15609452 C14.9757658,0.877737561 15.015796,0.483265987 14.9325333,0.21763392 C14.9341345,0.21763392 14.2296044,0.0442573012 13.835708,0.0219887446 Z" id="Shape"></path>
                <path d="M0.000505742066,2 C-0.00587748669,2.99020317 0.0499757649,3.98040635 0.0659338368,4.97060952 C0.0818919087,5.98699225 0.0388051146,7.38990842 0.07550868,8.40629115 C0.104233209,9.19475775 0.168065497,10.2480999 0.981927163,10.6777526 C1.81813013,11.1181851 2.9878568,10.8825691 3.88948786,10.8194301 C4.9411248,10.7470514 5.98637851,10.7547512 7.03961125,10.7855507 C8.0481614,10.8148102 9.05830735,10.8024904 10.0652617,10.8409898 C11.1392399,10.8810291 12.2323678,11.0596661 13.3079419,10.9795874 C14.1984023,10.9133685 14.8702371,10.6207735 14.9356652,9.72604872 C15.0234346,8.52332916 15.0010933,7.05881404 14.9851352,5.95927273 C14.9691772,4.83971175 14.9564107,3.25661865 14.9228988,2.12781783" id="Shape"></path>
            </g>
        </g>
    </g>
</svg>