<?xml version="1.0" encoding="UTF-8"?>
<svg width="11px" height="17px" viewBox="0 0 11 17" version="1.1" xmlns="http://www.w3.org/2000/svg" xmlns:xlink="http://www.w3.org/1999/xlink">
    <!-- Generator: Sketch 51.3 (57544) - http://www.bohemiancoding.com/sketch -->
    <title>MapPin</title>
    <desc>Created with Sketch.</desc>
    <defs></defs>
    <g id="Page-1" stroke="none" stroke-width="1" fill="none" fill-rule="evenodd">
        <g id="Artboard" transform="translate(-1968.000000, -1842.000000)" fill="#929292" fill-rule="nonzero">
            <g id="MapPin" transform="translate(1968.000000, 1842.000000)">
                <path d="M5.88397238,0.0186422463 C2.32737499,-0.260920721 0,2.64519492 0,5.9530777 C0,9.94731268 3.18464248,13.6887692 5.22508083,17 C6.34980161,15.314252 7.8323076,13.1832122 8.46108851,12.0683084 C9.58758051,10.079561 10.212819,9.21743571 10.7742938,7.0110645 C11.6333325,3.63956859 10.0480961,0.346752077 5.88397238,0.0186422463 Z M6.32323341,8.07909548 C5.51201747,8.26156472 4.47231494,8.14605667 3.91261137,7.49820716 C3.37416236,6.86877197 3.40604421,5.88444248 3.8010249,5.19474222 C4.23142986,4.44142884 5.05681551,3.99948498 5.90345573,3.99948498 C7.10788114,3.99948498 7.88544401,4.93694164 7.81459546,6.27449141 C7.7685439,7.09644002 7.17695848,7.88658206 6.32323341,8.07909548 Z" id="Shape"></path>
            </g>
        </g>
    </g>
</svg>