<?xml version="1.0" encoding="UTF-8"?>
<svg width="17px" height="17px" viewBox="0 0 17 17" version="1.1" xmlns="http://www.w3.org/2000/svg" xmlns:xlink="http://www.w3.org/1999/xlink">
    <!-- Generator: Sketch 51.3 (57544) - http://www.bohemiancoding.com/sketch -->
    <title>Uhrzeit</title>
    <desc>Created with Sketch.</desc>
    <defs></defs>
    <g id="Page-1" stroke="none" stroke-width="1" fill="none" fill-rule="evenodd" stroke-linecap="round" stroke-linejoin="round">
        <g id="Artboard" transform="translate(-1827.000000, -1842.000000)" stroke="#3A3A3A">
            <g id="Uhrzeit" transform="translate(1826.000000, 1842.000000)">
                <path d="M9.56945455,1.1168 C8.13272727,1.0976 6.68781818,1.4256 5.37381818,2.0256 C4.10890909,2.6032 3.06654545,3.5632 2.37927273,4.7504 C0.760909091,7.5552 1.39745455,11.0688 3.56236364,13.4208 C4.70781818,14.6672 6.26727273,15.5648 7.98709091,15.7616 C9.61690909,15.9472 11.2418182,15.4832 12.6425455,14.6768 C13.9483636,13.9232 15.1314545,12.8736 15.9087273,11.592 C16.6778182,10.3264 16.9461818,8.856 16.7350909,7.4016 C16.5109091,5.856 15.8072727,4.336 14.7125455,3.1936 C13.7176364,2.1552 12.5934545,1.5984 11.1649091,1.2224 C10.8474545,1.1408 9.936,1.1216 9.56945455,1.1168 Z" id="Shape"></path>
                <path d="M9.18327273,3.1072 C9.18327273,3.568 9.21927273,6.5056 9.13909091,7.904 C9.11127273,8.344 9.05563636,8.4624 9.01963636,8.6416" id="Shape"></path>
                <path d="M9,8.6256 C9.22090909,9.1808 11.6312727,11.0224 11.9110909,11.096" id="Shape"></path>
            </g>
        </g>
    </g>
</svg>